<?xml version="1.0" encoding="UTF-8"?>
<svg version="1.1" xmlns="http://www.w3.org/2000/svg" width="512" height="512">
<path d="M0 0 C0.91394531 0.69738281 1.82789063 1.39476563 2.76953125 2.11328125 C3.63821457 2.65783411 4.50689789 3.20238698 5.40190494 3.76344144 C8.08152674 6.42293291 8.36908122 7.89571606 8.44962603 11.60869712 C8.44020698 12.33974687 8.43078793 13.07079663 8.42108345 13.8239994 C8.43074743 14.60902421 8.4404114 15.39404901 8.45036823 16.20286244 C8.47676596 18.84973048 8.46738541 21.49527532 8.45828247 24.14224243 C8.46976598 26.05248885 8.48340565 27.96272333 8.49902332 29.87294042 C8.5355382 35.13501155 8.54056873 40.39671974 8.54042697 45.6589005 C8.54556567 51.32923059 8.57923338 56.99940255 8.60894775 62.66964722 C8.66828904 75.07463808 8.69010391 87.47952735 8.7046113 99.88464022 C8.71388129 107.62839542 8.73116036 115.3721194 8.75011826 123.11585617 C8.80145204 144.54988071 8.84475227 165.9838627 8.85374641 187.41794777 C8.85404418 188.10367868 8.85434194 188.78940959 8.85464872 189.49592023 C8.85585062 192.27491619 8.85701852 195.05391217 8.8581807 197.83290815 C8.85905758 199.92457549 8.85994805 202.01624282 8.86083984 204.10791016 C8.86112528 204.79907803 8.86141072 205.4902459 8.8617048 206.20235826 C8.87133096 228.61085532 8.93589618 251.01871388 9.0340605 273.42698701 C9.13765991 297.11932328 9.19420908 320.81119681 9.19603336 344.50378644 C9.19812049 357.41862987 9.22091726 370.33269381 9.2968483 383.24733353 C9.36122624 394.24489421 9.38099923 405.24140148 9.34261514 416.23910339 C9.32434735 421.85113464 9.32710278 427.46107578 9.38649368 433.07286835 C9.44037184 438.21248048 9.43407194 443.34840289 9.38015328 448.4879822 C9.37119683 450.3453927 9.38415223 452.20306733 9.42140652 454.06012578 C9.6747973 467.55935168 9.6747973 467.55935168 6.48562083 471.83430955 C3.00206619 475.31252217 -0.94687724 477.73475799 -5.23046875 480.11328125 C-6.02466308 480.59738232 -6.8188574 481.0814834 -7.63711822 481.5802542 C-9.40240618 482.64293644 -11.1787794 483.55005406 -13.04296875 484.42578125 C-14.02692627 484.90349976 -14.02692627 484.90349976 -15.03076172 485.39086914 C-38.28495232 496.30525582 -66.02530991 498.06340743 -90.2734375 489.38183594 C-114.40714739 480.38263361 -133.63899932 462.5608181 -144.47265625 439.2578125 C-149.77878024 427.17675122 -152.40913808 415.42796875 -152.29296875 402.23828125 C-152.28845703 401.26375 -152.28394531 400.28921875 -152.27929688 399.28515625 C-152.26757781 396.89446691 -152.25117094 394.50390685 -152.23046875 392.11328125 C-152.85663086 392.07082275 -153.48279297 392.02836426 -154.12792969 391.98461914 C-159.9130243 391.51235538 -165.03776279 390.55211162 -170.48046875 388.55078125 C-171.57161987 388.15270264 -171.57161987 388.15270264 -172.68481445 387.74658203 C-196.74849569 378.62323502 -215.41531876 360.37196713 -226.23046875 337.11328125 C-236.30776579 312.95000628 -236.57746008 285.1236286 -226.84960938 260.86352539 C-223.86931506 253.79034936 -220.2360624 247.75723485 -215.5390625 241.6640625 C-213.93412994 239.20506297 -213.93412994 239.20506297 -214.78125 236.6484375 C-216.42316995 233.77618401 -218.16461045 231.00429797 -219.98046875 228.23828125 C-233.30103275 207.15067766 -236.90798247 181.34572386 -232.14990234 156.90649414 C-226.39749783 132.51851371 -211.3423428 110.71502509 -190.23046875 97.11328125 C-179.28710652 90.55123403 -165.24911552 83.47236325 -152.23046875 84.11328125 C-152.276875 82.79457031 -152.32328125 81.47585937 -152.37109375 80.1171875 C-153.0591606 52.18376638 -144.2827425 29.21034178 -124.94140625 8.73828125 C-91.18721722 -23.94589026 -37.9265789 -27.41035163 0 0 Z " fill="#FFFFFF" transform="translate(233.23046875,17.88671875)"/>
<path d="M0 0 C20.09188624 15.75681518 32.06700867 35.31498546 37.6484375 60.15234375 C38.196122 64.8533024 38.12757817 69.5182761 38.0859375 74.24609375 C38.08142578 75.220625 38.07691406 76.19515625 38.07226562 77.19921875 C38.06054656 79.58990809 38.04413969 81.98046815 38.0234375 84.37109375 C38.9822583 84.44457031 38.9822583 84.44457031 39.96044922 84.51953125 C63.26080266 86.53620053 83.17066104 99.89950861 98.3359375 117.12109375 C116.35857989 139.85689426 121.8011503 166.45047432 118.73486328 195.06396484 C116.49048252 209.56356836 110.24479386 223.25825164 101.33203125 234.8203125 C99.72709869 237.27931203 99.72709869 237.27931203 100.57421875 239.8359375 C102.2161387 242.70819099 103.9575792 245.48007703 105.7734375 248.24609375 C119.0940015 269.33369734 122.70095122 295.13865114 117.94287109 319.57788086 C112.19046658 343.96586129 97.13531155 365.76934991 76.0234375 379.37109375 C65.08007527 385.93314097 51.04208427 393.01201175 38.0234375 392.37109375 C38.06984375 393.68980469 38.11625 395.00851562 38.1640625 396.3671875 C38.85212935 424.30060862 30.07571125 447.27403322 10.734375 467.74609375 C-10.19843351 488.01532619 -35.29217473 494.95566169 -63.88671875 494.64453125 C-83.80873466 494.11397789 -101.28585974 486.34383027 -116.9765625 474.37109375 C-117.84697678 473.8983905 -118.71739105 473.42568726 -119.61418152 472.93865967 C-123.38584399 468.83940892 -122.63368068 464.55157054 -122.54418945 459.17675781 C-122.54491959 458.03500595 -122.54564972 456.89325409 -122.54640198 455.71690369 C-122.54291611 451.93969361 -122.5040045 448.16371365 -122.46484375 444.38671875 C-122.45551926 441.76927362 -122.44840144 439.15181977 -122.44340515 436.53436279 C-122.4278697 430.34711425 -122.38684598 424.16030787 -122.3366577 417.97325397 C-122.28075438 410.92861778 -122.25327537 403.88396039 -122.22818053 396.83915758 C-122.17592939 382.34957496 -122.08799331 367.86034054 -121.9765625 353.37109375 C-117.42402339 353.0474989 -112.87825847 352.81299624 -108.31689453 352.65698242 C-106.76981046 352.59194227 -105.22351572 352.50345568 -103.67919922 352.39038086 C-98.51826714 352.02221882 -93.98773223 351.95804805 -88.9765625 353.37109375 C-85.92115094 356.53762638 -84.45610612 359.09306114 -82.59887695 363.06762695 C-78.15828505 372.10986157 -69.14858179 377.08909324 -59.9765625 380.37109375 C-48.08386489 383.73833084 -35.2753295 381.84698611 -24.59375 376.0859375 C-14.46237759 369.92125497 -7.67620137 360.87820036 -4.43457031 349.46240234 C-1.68452602 336.90543037 -4.07952966 324.50497084 -10.6640625 313.68359375 C-17.42011867 304.24200525 -26.57074047 297.86903002 -37.9765625 295.37109375 C-52.48013739 294.49426712 -64.37133206 295.78879339 -75.9765625 305.37109375 C-81.8061076 310.95818037 -84.94319589 316.11103385 -88.9765625 323.37109375 C-99.8665625 323.37109375 -110.7565625 323.37109375 -121.9765625 323.37109375 C-121.9765625 300.27109375 -121.9765625 277.17109375 -121.9765625 253.37109375 C-104.07912047 252.84967923 -104.07912047 252.84967923 -96.41796875 252.73632812 C-91.19990068 252.65875648 -85.98481208 252.56727594 -80.76904297 252.39038086 C-76.56065506 252.24855365 -72.3554608 252.17129525 -68.14486694 252.13768959 C-66.54330122 252.11376377 -64.94190075 252.0670289 -63.34170532 251.99660301 C-58.27092079 251.78242003 -53.83672869 251.79811116 -48.9765625 253.37109375 C-45.9825473 256.54572392 -44.46206238 259.14618842 -42.60766602 263.08369446 C-38.13001616 272.1081511 -29.15467069 277.08691446 -19.9765625 280.37109375 C-8.08386489 283.73833084 4.7246705 281.84698611 15.40625 276.0859375 C25.53762241 269.92125497 32.32379863 260.87820036 35.56542969 249.46240234 C38.31547398 236.90543037 35.92047034 224.50497084 29.3359375 213.68359375 C22.57988133 204.24200525 13.42925953 197.86903002 2.0234375 195.37109375 C-12.48013739 194.49426712 -24.37133206 195.78879339 -35.9765625 205.37109375 C-41.8061076 210.95818037 -44.94319589 216.11103385 -48.9765625 223.37109375 C-73.0665625 223.37109375 -97.1565625 223.37109375 -121.9765625 223.37109375 C-121.9765625 200.27109375 -121.9765625 177.17109375 -121.9765625 153.37109375 C-111.0865625 153.37109375 -100.1965625 153.37109375 -88.9765625 153.37109375 C-86.3365625 157.66109375 -83.6965625 161.95109375 -80.9765625 166.37109375 C-72.16425809 175.52673469 -62.67816415 181.35325058 -49.78295898 181.66357422 C-36.31791654 181.77736722 -25.89556436 178.70297251 -15.81640625 169.37109375 C-5.88759786 158.97832236 -3.47331315 147.83515487 -3.69921875 133.93359375 C-4.1704466 122.51159327 -10.03991418 112.88255687 -18.1640625 105.12109375 C-28.81897786 96.07344528 -40.33885094 94.63682933 -53.79296875 95.19189453 C-65.29392236 96.13573397 -74.64877391 103.42645911 -82.0546875 111.734375 C-84.71311267 115.38160465 -86.78473008 119.42579539 -88.9765625 123.37109375 C-99.8665625 123.37109375 -110.7565625 123.37109375 -121.9765625 123.37109375 C-122.27060192 108.2891334 -122.50981664 93.2086511 -122.65012074 78.12449837 C-122.71701423 71.11971186 -122.80811325 64.11683887 -122.95727539 57.11328125 C-123.10124248 50.35039135 -123.17631849 43.58948712 -123.20996666 36.82516098 C-123.23393445 34.24856201 -123.2807429 31.67206828 -123.35105324 29.09631729 C-123.90814308 7.83668163 -123.90814308 7.83668163 -119.1438446 2.59693909 C-116.01867588 -0.11111326 -112.71080674 -1.88101766 -108.9765625 -3.62890625 C-107.56819297 -4.4691479 -106.16378114 -5.31621891 -104.76953125 -6.1796875 C-103.57661704 -6.78481918 -102.37475121 -7.37266948 -101.1640625 -7.94140625 C-100.50809082 -8.25988525 -99.85211914 -8.57836426 -99.17626953 -8.90649414 C-67.07563222 -23.97297288 -28.65117297 -20.97548836 0 0 Z " fill="#FFFFFF" transform="translate(392.9765625,17.62890625)"/>
<path d="M0 0 C4.61581142 2.18643699 6.72864085 4.49599804 9 9 C9.82885269 14.54808604 9.7240695 19.47140883 7.3125 24.5625 C4.21064779 27.8320199 1.61649202 29.75850523 -2.90234375 30.43359375 C-9.05071801 30.44150672 -13.31314296 30.4465054 -18 26 C-21.88937897 20.55860924 -21.79042609 15.48149391 -21 9 C-16.63929544 -0.20593186 -9.3488659 -1.1401056 0 0 Z " fill="#FFFFFF" transform="translate(352,341)"/>
<path d="M0 0 C4.61581142 2.18643699 6.72864085 4.49599804 9 9 C9.82885269 14.54808604 9.7240695 19.47140883 7.3125 24.5625 C4.21064779 27.8320199 1.61649202 29.75850523 -2.90234375 30.43359375 C-9.05071801 30.44150672 -13.31314296 30.4465054 -18 26 C-21.88937897 20.55860924 -21.79042609 15.48149391 -21 9 C-16.63929544 -0.20593186 -9.3488659 -1.1401056 0 0 Z " fill="#FFFFFF" transform="translate(392,241)"/>
<path d="M0 0 C4.61581142 2.18643699 6.72864085 4.49599804 9 9 C9.82885269 14.54808604 9.7240695 19.47140883 7.3125 24.5625 C4.21064779 27.8320199 1.61649202 29.75850523 -2.90234375 30.43359375 C-9.05071801 30.44150672 -13.31314296 30.4465054 -18 26 C-21.88937897 20.55860924 -21.79042609 15.48149391 -21 9 C-16.63929544 -0.20593186 -9.3488659 -1.1401056 0 0 Z " fill="#FFFFFF" transform="translate(352,141)"/>
</svg>
